<svg xmlns="http://www.w3.org/2000/svg" width="48" height="48" viewBox="0 0 48 48" fill="white">
  <path d="M23.98 4C13.5 4 5 12.5 5 22c0 3.75 1.06 7.26 2.89 10.22L5 44l12.49-2.86C20.06 42.4 22.96 44 26 44c9.5 0 18-8.5 18-18S36.5 4 26 4zm0 2c9.06 0 16 6.94 16 16 0 8.88-7.19 16-16 16-2.63 0-5.13-.63-7.36-1.8l-.64-.34-7.27 1.7 1.61-6.61-.37-.64C9.72 28.1 9 25.12 9 22c0-9.06 6.94-16 16-16zm-5.52 8.9c-.33 0-.76.01-1.17.55-.41.55-1.54 1.49-1.54 3.62 0 2.13 1.58 4.2 1.8 4.48.23.28 3.03 4.82 7.34 6.76 3.62 1.64 4.36 1.47 5.12 1.38.76-.1 2.52-1.03 2.88-2.05.36-1.03.36-1.92.26-2.12-.1-.2-.36-.3-.76-.5s-2.52-1.24-2.91-1.37c-.39-.13-.66-.2-.92.2-.26.4-1.05 1.37-1.29 1.65-.23.27-.49.3-.89.1-.4-.2-1.7-.64-3.23-2.12-1.2-1.16-2.01-2.6-2.23-3-.23-.4-.02-.63.18-.84.2-.2.39-.46.59-.7.2-.24.26-.4.39-.67.13-.26.07-.5-.03-.7-.1-.2-.9-2.14-1.23-2.9-.33-.76-.65-.67-.92-.67z"/>
</svg>